<svg width="24" height="24" viewBox="0 0 24 24" fill="none" xmlns="http://www.w3.org/2000/svg">
<path d="M12 1C9.82441 1 7.69767 1.64514 5.88873 2.85383C4.07979 4.06253 2.66989 5.78049 1.83733 7.79048C1.00477 9.80047 0.786929 12.0122 1.21137 14.146C1.6358 16.2798 2.68345 18.2398 4.22183 19.7782C5.76021 21.3166 7.72022 22.3642 9.85401 22.7886C11.9878 23.2131 14.1995 22.9952 16.2095 22.1627C18.2195 21.3301 19.9375 19.9202 21.1462 18.1113C22.3549 16.3023 23 14.1756 23 12C23 9.08262 21.8411 6.28473 19.7782 4.22183C17.7153 2.15893 14.9174 1 12 1ZM12 21C10.22 21 8.47992 20.4722 6.99987 19.4832C5.51983 18.4943 4.36628 17.0887 3.68509 15.4442C3.0039 13.7996 2.82567 11.99 3.17294 10.2442C3.5202 8.49836 4.37737 6.89471 5.63604 5.63604C6.89472 4.37737 8.49836 3.5202 10.2442 3.17293C11.99 2.82567 13.7996 3.0039 15.4442 3.68508C17.0887 4.36627 18.4943 5.51983 19.4832 6.99987C20.4722 8.47991 21 10.22 21 12C21 14.3869 20.0518 16.6761 18.364 18.364C16.6761 20.0518 14.387 21 12 21Z" fill="black"/>
<path d="M16 7.52222C16 6.84721 15.4528 6.3 14.7778 6.3C14.1028 6.3 13.5556 6.84721 13.5556 7.52222V16.0778C13.5556 16.7528 14.1028 17.3 14.7778 17.3C15.4528 17.3 16 16.7528 16 16.0778V7.52222Z" fill="black"/>
<path d="M9.88891 7.52222C9.88891 6.84721 9.3417 6.3 8.66669 6.3C7.99167 6.3 7.44446 6.84721 7.44446 7.52222V16.0778C7.44446 16.7528 7.99167 17.3 8.66669 17.3C9.3417 17.3 9.88891 16.7528 9.88891 16.0778V7.52222Z" fill="black"/>
<path d="M6.22224 10.5778C5.54723 10.5778 5.00002 11.125 5.00002 11.8C5.00002 12.475 5.54723 13.0222 6.22224 13.0222L17.2222 13.0222C17.8973 13.0222 18.4445 12.475 18.4445 11.8C18.4445 11.125 17.8973 10.5778 17.2222 10.5778L6.22224 10.5778Z" fill="black"/>
</svg>
