<svg width="24" height="24" viewBox="0 0 24 24" fill="none" xmlns="http://www.w3.org/2000/svg">
<path d="M2.5 10.56L11.5 15.76C11.652 15.8478 11.8245 15.894 12 15.894C12.1755 15.894 12.348 15.8478 12.5 15.76L21.5 10.56C21.6515 10.4721 21.7773 10.3459 21.8648 10.1941C21.9522 10.0423 21.9982 9.87019 21.9982 9.695C21.9982 9.51981 21.9522 9.34769 21.8648 9.19589C21.7773 9.04408 21.6515 8.91791 21.5 8.83L12.5 3.63C12.348 3.54223 12.1755 3.49603 12 3.49603C11.8245 3.49603 11.652 3.54223 11.5 3.63L2.5 8.83C2.34846 8.91791 2.22267 9.04408 2.13524 9.19589C2.0478 9.34769 2.00177 9.51981 2.00177 9.695C2.00177 9.87019 2.0478 10.0423 2.13524 10.1941C2.22267 10.3459 2.34846 10.4721 2.5 10.56ZM12 5.65L19 9.65L12 13.7L5 9.69L12 5.65ZM20.5 13.44L12 18.35L3.5 13.44C3.38646 13.3735 3.26091 13.33 3.13054 13.3121C3.00017 13.2942 2.86754 13.3022 2.74027 13.3356C2.613 13.3691 2.49357 13.4273 2.38885 13.507C2.28413 13.5867 2.19616 13.6862 2.13 13.8C2.06388 13.9141 2.021 14.0402 2.00381 14.171C1.98663 14.3018 1.99549 14.4347 2.02988 14.562C2.06427 14.6893 2.12351 14.8086 2.2042 14.913C2.28488 15.0173 2.38541 15.1047 2.5 15.17L11.5 20.37C11.652 20.4578 11.8245 20.504 12 20.504C12.1755 20.504 12.348 20.4578 12.5 20.37L21.5 15.17C21.6146 15.1047 21.7151 15.0173 21.7958 14.913C21.8765 14.8086 21.9357 14.6893 21.9701 14.562C22.0045 14.4347 22.0134 14.3018 21.9962 14.171C21.979 14.0402 21.9361 13.9141 21.87 13.8C21.8038 13.6862 21.7159 13.5867 21.6111 13.507C21.5064 13.4273 21.387 13.3691 21.2597 13.3356C21.1325 13.3022 20.9998 13.2942 20.8695 13.3121C20.7391 13.33 20.6135 13.3735 20.5 13.44Z" fill="black"/>
</svg>
