<svg width="111" height="28" viewBox="0 0 111 28" fill="none" xmlns="http://www.w3.org/2000/svg">
<rect width="111" height="28" fill="white"/>
<path d="M8.7207 20.3418C8.14128 20.3418 7.72135 20.1953 7.46094 19.9023C7.25911 19.681 7.1582 19.3815 7.1582 19.0039C7.1582 18.7044 7.20378 18.3594 7.29492 17.9688C7.38607 17.5716 7.51953 17.0605 7.69531 16.4355C7.87109 15.804 8.0013 15.2832 8.08594 14.873C8.17708 14.4629 8.22266 14.0853 8.22266 13.7402C8.22266 13.3171 8.13477 12.9883 7.95898 12.7539C7.76367 12.5065 7.45117 12.3828 7.02148 12.3828C6.7806 12.3828 6.55924 12.4089 6.35742 12.4609L4.75586 20H1.88477L4.59961 7.27539L7.55859 6.88477L6.58203 11.5039H6.73828C7.13542 11.5039 7.50977 11.3997 7.86133 11.1914C8.21289 10.9766 8.52214 10.6901 8.78906 10.332C9.03646 9.99349 9.22852 9.61914 9.36523 9.20898C9.50846 8.79883 9.58008 8.40169 9.58008 8.01758C9.58008 7.73112 9.5345 7.46094 9.44336 7.20703C9.35872 6.95312 9.23177 6.73177 9.0625 6.54297C8.67839 6.1263 8.11849 5.91797 7.38281 5.91797C6.56901 5.91797 5.83008 6.02865 5.16602 6.25C4.50846 6.46484 3.94206 6.78385 3.4668 7.20703C2.98503 7.63021 2.61719 8.14453 2.36328 8.75C2.10938 9.35547 1.98242 10.0326 1.98242 10.7812C1.98242 11.1979 2.02799 11.5299 2.11914 11.7773C2.14518 11.862 2.17773 11.9368 2.2168 12.002C2.24284 12.0475 2.25586 12.0931 2.25586 12.1387C1.5332 12.1387 1.00586 11.9954 0.673828 11.709C0.302734 11.3965 0.117188 10.8919 0.117188 10.1953C0.117188 9.75911 0.211589 9.32943 0.400391 8.90625C0.589193 8.47656 0.85612 8.06315 1.20117 7.66602C1.52669 7.28841 1.91406 6.93685 2.36328 6.61133C2.81901 6.2793 3.31055 5.99284 3.83789 5.75195C4.94466 5.25065 6.04492 5 7.13867 5C7.89388 5 8.55794 5.08789 9.13086 5.26367C9.71029 5.43294 10.1953 5.67383 10.5859 5.98633C10.9505 6.2793 11.224 6.61784 11.4062 7.00195C11.5885 7.37956 11.6797 7.77995 11.6797 8.20312C11.6797 8.84115 11.4941 9.45964 11.123 10.0586C10.7064 10.7227 10.1725 11.2435 9.52148 11.6211C10.0358 11.7773 10.3971 12.028 10.6055 12.373C10.8008 12.7051 10.8984 13.1217 10.8984 13.623C10.8984 13.9941 10.8561 14.3913 10.7715 14.8145C10.6868 15.2311 10.5664 15.7259 10.4102 16.2988C10.2344 16.9368 10.1074 17.4251 10.0293 17.7637C9.95768 18.0957 9.92188 18.4017 9.92188 18.6816C9.92188 18.9941 9.99023 19.2708 10.127 19.5117C10.2702 19.7461 10.4622 19.9089 10.7031 20C9.90234 20.2279 9.24154 20.3418 8.7207 20.3418Z" fill="#7165FF"/>
<path d="M14.9512 20.0781C13.9616 20.0781 13.1966 19.8372 12.6562 19.3555C12.0508 18.8216 11.748 18.0111 11.748 16.9238C11.748 16.5137 11.7904 16.0612 11.875 15.5664C11.9596 15.0651 12.0898 14.5605 12.2656 14.0527C12.6693 12.8418 13.2454 11.875 13.9941 11.1523C14.8991 10.2669 15.9766 9.82422 17.2266 9.82422C18.9388 9.82422 19.7949 10.8887 19.7949 13.0176V13.0371C19.834 13.0501 19.8665 13.0566 19.8926 13.0566H20.0098C20.4525 13.0566 20.9766 12.9329 21.582 12.6855C22.1159 12.4642 22.6204 12.1875 23.0957 11.8555L23.2715 12.4023C22.8809 12.8125 22.3763 13.1608 21.7578 13.4473C21.1458 13.7337 20.4688 13.9388 19.7266 14.0625C19.6484 14.9674 19.4727 15.7943 19.1992 16.543C18.9258 17.2852 18.5742 17.9232 18.1445 18.457C17.7214 18.9779 17.2363 19.3783 16.6895 19.6582C16.1426 19.9382 15.5632 20.0781 14.9512 20.0781ZM15.752 18.2812C15.9863 18.2812 16.224 18.1771 16.4648 17.9688C16.7122 17.7539 16.9434 17.4577 17.1582 17.0801C17.373 16.7025 17.5586 16.2598 17.7148 15.752C17.8711 15.2441 17.9883 14.7005 18.0664 14.1211C17.8711 14.069 17.7311 13.9714 17.6465 13.8281C17.5684 13.6849 17.5293 13.5026 17.5293 13.2812C17.5293 13.0078 17.5846 12.7799 17.6953 12.5977C17.806 12.4154 17.959 12.2819 18.1543 12.1973C18.1283 11.7741 18.0599 11.4714 17.9492 11.2891C17.8906 11.1979 17.8158 11.1328 17.7246 11.0938C17.64 11.0547 17.5293 11.0352 17.3926 11.0352C16.9434 11.0352 16.5039 11.3737 16.0742 12.0508C15.6771 12.6628 15.3516 13.418 15.0977 14.3164C14.8503 15.1953 14.7266 15.9766 14.7266 16.6602C14.7266 16.9922 14.7428 17.2624 14.7754 17.4707C14.8145 17.679 14.8763 17.8418 14.9609 17.959C15.0391 18.0762 15.14 18.1608 15.2637 18.2129C15.3874 18.2585 15.5501 18.2812 15.752 18.2812Z" fill="#7165FF"/>
<path d="M23.2227 20.1172C22.4609 20.1172 21.8457 19.8796 21.377 19.4043C20.8301 18.8444 20.5566 18.0111 20.5566 16.9043C20.5566 16.4355 20.6055 15.9408 20.7031 15.4199C20.7943 14.8991 20.931 14.3848 21.1133 13.877C21.5299 12.7311 22.0996 11.8066 22.8223 11.1035C23.6556 10.3027 24.6159 9.90234 25.7031 9.90234C26.2435 9.90234 26.6471 9.99674 26.9141 10.1855C27.1875 10.3678 27.3242 10.612 27.3242 10.918V11.0645L27.5391 10H30.4199L28.9844 16.7969C28.9258 16.9922 28.8965 17.207 28.8965 17.4414C28.8965 18.0143 29.1699 18.3008 29.7168 18.3008C30.0814 18.3008 30.4134 18.1152 30.7129 17.7441C30.9668 17.4316 31.1751 16.9889 31.3379 16.416H32.1777C31.8197 17.4316 31.3867 18.2357 30.8789 18.8281C30.4492 19.3164 29.9642 19.668 29.4238 19.8828C29.0267 20.0391 28.6068 20.1172 28.1641 20.1172C27.5977 20.1172 27.1452 19.9642 26.8066 19.6582C26.4746 19.3457 26.2728 18.8867 26.2012 18.2812C25.8236 18.8151 25.4264 19.2318 25.0098 19.5312C24.4759 19.9219 23.8802 20.1172 23.2227 20.1172ZM24.5215 18.1836C24.6712 18.1836 24.8275 18.1445 24.9902 18.0664C25.1595 17.9883 25.3223 17.8776 25.4785 17.7344C25.8301 17.3958 26.0645 16.9564 26.1816 16.416L27.1387 11.9043C27.1387 11.8392 27.1224 11.7643 27.0898 11.6797C27.0638 11.5885 27.0247 11.5039 26.9727 11.4258C26.8164 11.237 26.5983 11.1426 26.3184 11.1426C26.0514 11.1426 25.791 11.2305 25.5371 11.4062C25.2897 11.582 25.0553 11.8262 24.834 12.1387C24.4434 12.7051 24.1211 13.444 23.8672 14.3555C23.75 14.7591 23.6621 15.1595 23.6035 15.5566C23.5449 15.9473 23.5156 16.3021 23.5156 16.6211C23.5156 17.2852 23.6393 17.7344 23.8867 17.9688C23.9714 18.0599 24.0658 18.1185 24.1699 18.1445C24.2741 18.1706 24.3913 18.1836 24.5215 18.1836Z" fill="#7165FF"/>
<path d="M33.623 20.1172C33.1413 20.1172 32.7148 20.0456 32.3438 19.9023C31.9727 19.7526 31.6602 19.5475 31.4062 19.2871C31.1719 19.0462 30.9961 18.7793 30.8789 18.4863C30.7617 18.1868 30.7031 17.8776 30.7031 17.5586C30.7031 17.1224 30.8138 16.7285 31.0352 16.377C31.2305 16.0645 31.4746 15.8398 31.7676 15.7031C32.2884 14.7786 32.7409 13.8411 33.125 12.8906C33.5091 11.9401 33.877 10.9017 34.2285 9.77539L37.1875 9.38477C37.2656 11.0775 37.3372 12.3763 37.4023 13.2812C37.4674 14.2122 37.5228 14.8958 37.5684 15.332C37.6074 15.8398 37.627 16.2826 37.627 16.6602C37.627 16.9987 37.6009 17.2526 37.5488 17.4219C38.1478 17.0703 38.6263 16.735 38.9844 16.416H39.8242C39.349 16.9694 38.8574 17.4447 38.3496 17.8418C37.8483 18.2389 37.321 18.597 36.7676 18.916C36.3704 19.3327 35.8724 19.6419 35.2734 19.8438C34.7526 20.026 34.2025 20.1172 33.623 20.1172ZM32.9883 18.5352C33.4896 18.5352 33.89 18.3984 34.1895 18.125C34.5475 17.7995 34.7266 17.3177 34.7266 16.6797C34.7266 16.4128 34.7103 16.0775 34.6777 15.6738L34.6289 15.0781C34.5703 14.5638 34.5117 13.9681 34.4531 13.291L34.3457 11.9434C34.1569 12.5488 33.9323 13.151 33.6719 13.75C33.4115 14.3424 33.0957 15 32.7246 15.7227C33.0306 15.8919 33.1836 16.123 33.1836 16.416C33.1836 16.6764 33.1055 16.901 32.9492 17.0898C32.7799 17.2982 32.5651 17.4023 32.3047 17.4023C32.1745 17.4023 32.0638 17.3861 31.9727 17.3535C31.888 17.3145 31.8197 17.2428 31.7676 17.1387C31.7676 17.6204 31.862 17.9753 32.0508 18.2031C32.2396 18.4245 32.5521 18.5352 32.9883 18.5352Z" fill="#7165FF"/>
<path d="M40.9668 20.1172C40.3288 20.1172 39.8242 19.9284 39.4531 19.5508C39.0365 19.1341 38.8281 18.5254 38.8281 17.7246C38.8281 17.347 38.8802 16.9108 38.9844 16.416L40.1855 10.8008H39.5215L39.6875 10H40.3418L40.9473 7.23633L43.9062 6.83594L43.2227 10H44.4238L44.2676 10.8008H43.0664L41.7871 16.7969C41.735 16.9661 41.709 17.181 41.709 17.4414C41.709 17.7148 41.7708 17.9069 41.8945 18.0176C42.0247 18.1283 42.2331 18.1836 42.5195 18.1836C42.7148 18.1836 42.9036 18.1413 43.0859 18.0566C43.2747 17.9655 43.4473 17.8418 43.6035 17.6855C43.9225 17.3665 44.1634 16.9434 44.3262 16.416H45.166C44.8079 17.4251 44.3587 18.2292 43.8184 18.8281C43.3626 19.3164 42.8483 19.668 42.2754 19.8828C41.8587 20.0391 41.4225 20.1172 40.9668 20.1172Z" fill="#7165FF"/>
<path d="M45.0781 13.9844H49.0723L48.7402 15.5566H44.7168L45.0781 13.9844Z" fill="#7165FF"/>
<path d="M54.9902 6.29883C54.0723 6.62435 53.3789 7.12891 52.9102 7.8125C52.4479 8.48958 52.2168 9.31966 52.2168 10.3027C52.2168 10.7324 52.2624 11.1263 52.3535 11.4844C52.4512 11.8359 52.5846 12.1224 52.7539 12.3438C51.8945 12.3438 51.263 12.1712 50.8594 11.8262C50.4557 11.4746 50.2539 10.9245 50.2539 10.1758C50.2539 9.2513 50.5339 8.37565 51.0938 7.54883C51.6276 6.76107 52.3535 6.1263 53.2715 5.64453C54.2155 5.16276 55.2344 4.92188 56.3281 4.92188C56.6341 4.92188 56.901 4.94466 57.1289 4.99023C57.3633 5.0293 57.6237 5.09766 57.9102 5.19531L60.3223 15.8984L62.5586 5.03906H64.502L61.2402 20H58.4766L56.1621 10.0781L53.877 20H51.9824L54.9902 6.29883Z" fill="#7165FF"/>
<path d="M64.2383 13.9844H68.2324L67.9004 15.5566H63.877L64.2383 13.9844Z" fill="#7165FF"/>
<path d="M77.041 20.3418C76.4876 20.3418 76.0514 20.2474 75.7324 20.0586C75.2832 19.7982 75.0586 19.3978 75.0586 18.8574C75.0586 18.4993 75.1432 18.112 75.3125 17.6953C75.5599 17.9622 75.7878 18.151 75.9961 18.2617C76.2044 18.3659 76.4258 18.418 76.6602 18.418C77.3242 18.418 77.8353 18.0078 78.1934 17.1875C78.3431 16.8555 78.4538 16.4811 78.5254 16.0645C78.597 15.6413 78.6328 15.2279 78.6328 14.8242C78.6328 14.056 78.4994 13.457 78.2324 13.0273C77.9134 12.526 77.4154 12.2754 76.7383 12.2754C76.3802 12.2754 76.0742 12.2982 75.8203 12.3438L74.1797 20H71.2988L74.0137 7.27539L76.9727 6.88477L76.0352 11.3184H76.1523C76.5365 11.3184 76.9043 11.224 77.2559 11.0352C77.6074 10.8464 77.9167 10.5892 78.1836 10.2637C78.444 9.94466 78.6491 9.5931 78.7988 9.20898C78.9551 8.82487 79.0332 8.44727 79.0332 8.07617C79.0332 7.78971 78.9811 7.51953 78.877 7.26562C78.7793 7.00521 78.6296 6.77734 78.4277 6.58203C77.9655 6.13932 77.2884 5.91797 76.3965 5.91797C75.5762 5.91797 74.7982 6.09375 74.0625 6.44531C73.2422 6.84245 72.6139 7.37956 72.1777 8.05664C71.6569 8.8444 71.3965 9.7526 71.3965 10.7812C71.3965 11.2109 71.4453 11.543 71.543 11.7773C71.569 11.862 71.6016 11.9368 71.6406 12.002C71.6667 12.0475 71.6797 12.0931 71.6797 12.1387C70.9701 12.1387 70.4362 11.9987 70.0781 11.7188C69.7201 11.4323 69.541 10.9603 69.541 10.3027C69.541 9.39128 69.8893 8.52214 70.5859 7.69531C70.9115 7.30469 71.2988 6.94661 71.748 6.62109C72.2038 6.28906 72.7018 6.0026 73.2422 5.76172C74.3815 5.25391 75.5664 5 76.7969 5C78.1706 5 79.248 5.32552 80.0293 5.97656C80.3678 6.26302 80.6217 6.59831 80.791 6.98242C80.9668 7.36003 81.0547 7.76042 81.0547 8.18359C81.0547 8.8151 80.8854 9.40104 80.5469 9.94141C80.1693 10.5404 79.6712 11.0124 79.0527 11.3574C79.8535 11.5007 80.4622 11.888 80.8789 12.5195C81.237 13.0729 81.416 13.7598 81.416 14.5801C81.416 14.9186 81.3835 15.293 81.3184 15.7031C81.2533 16.1133 81.1556 16.5202 81.0254 16.9238C80.7064 17.9264 80.2539 18.7109 79.668 19.2773C78.9388 19.987 78.0631 20.3418 77.041 20.3418Z" fill="#7165FF"/>
<path d="M83.4863 10H86.3672L86.1133 11.2402C86.569 10.8366 86.9401 10.5501 87.2266 10.3809C87.6693 10.127 88.1022 10 88.5254 10C88.9551 10 89.3001 10.153 89.5605 10.459C89.6777 10.5957 89.7656 10.7552 89.8242 10.9375C89.8828 11.1133 89.9121 11.3021 89.9121 11.5039C89.9121 11.6862 89.8828 11.862 89.8242 12.0312C89.7656 12.2005 89.6777 12.3535 89.5605 12.4902C89.4303 12.6335 89.2708 12.7474 89.082 12.832C88.8997 12.9167 88.6947 12.959 88.4668 12.959C88.291 12.959 88.151 12.9297 88.0469 12.8711C87.9427 12.8125 87.8613 12.7279 87.8027 12.6172C87.7506 12.5065 87.7148 12.3991 87.6953 12.2949C87.6367 12.015 87.5781 11.8294 87.5195 11.7383C87.474 11.6732 87.4023 11.6406 87.3047 11.6406C87.0247 11.6406 86.7871 11.6992 86.5918 11.8164C86.3965 11.9336 86.1491 12.1289 85.8496 12.4023L84.248 20H81.3672L83.4863 10Z" fill="#7165FF"/>
<path d="M92.5098 20.1172C91.5267 20.1172 90.7682 19.8698 90.2344 19.375C89.668 18.8477 89.3848 18.0371 89.3848 16.9434C89.3848 16.5332 89.4271 16.0775 89.5117 15.5762C89.5898 15.0749 89.7103 14.5736 89.873 14.0723C90.0553 13.5124 90.2865 12.9818 90.5664 12.4805C90.8529 11.9792 91.1849 11.5365 91.5625 11.1523C92.4349 10.2669 93.5091 9.82422 94.7852 9.82422C95.599 9.82422 96.1914 10.0195 96.5625 10.4102C96.849 10.7161 96.9922 11.1589 96.9922 11.7383C96.9922 12.3047 96.8685 12.8385 96.6211 13.3398C96.3737 13.8346 96.0319 14.2741 95.5957 14.6582C95.1595 15.0358 94.6647 15.3385 94.1113 15.5664C93.5579 15.7878 92.985 15.918 92.3926 15.957C92.36 16.2956 92.3438 16.5625 92.3438 16.7578C92.3438 17.4089 92.4674 17.8581 92.7148 18.1055C92.9297 18.3268 93.2878 18.4375 93.7891 18.4375C94.5117 18.4375 95.1725 18.2422 95.7715 17.8516C96.0254 17.6888 96.2695 17.4967 96.5039 17.2754C96.7383 17.0475 97.0117 16.7611 97.3242 16.416H98.0078C97.3763 17.4837 96.6504 18.3333 95.8301 18.9648C94.821 19.7331 93.7142 20.1172 92.5098 20.1172ZM92.5488 15C92.9199 14.974 93.2812 14.8665 93.6328 14.6777C93.9844 14.4889 94.2969 14.2415 94.5703 13.9355C94.8438 13.623 95.0586 13.2747 95.2148 12.8906C95.3711 12.5 95.4492 12.1029 95.4492 11.6992C95.4492 11.4323 95.4102 11.2305 95.332 11.0938C95.2604 10.9505 95.1335 10.8789 94.9512 10.8789C94.7103 10.8789 94.4661 10.9961 94.2188 11.2305C93.9779 11.4648 93.7435 11.7871 93.5156 12.1973C93.3073 12.5814 93.1185 13.0176 92.9492 13.5059C92.7799 13.9941 92.6465 14.4922 92.5488 15Z" fill="#7165FF"/>
<path d="M99.3066 20.1172C98.6686 20.1172 98.1641 19.9284 97.793 19.5508C97.3763 19.1341 97.168 18.5254 97.168 17.7246C97.168 17.347 97.2201 16.9108 97.3242 16.416L98.6816 10H101.562L100.127 16.7969C100.088 16.9596 100.068 17.1289 100.068 17.3047C100.068 17.5586 100.111 17.7604 100.195 17.9102C100.293 18.0924 100.449 18.1836 100.664 18.1836C101.029 18.1836 101.357 18.0176 101.65 17.6855C101.885 17.4056 102.09 16.9824 102.266 16.416L103.623 10H106.504L105.068 16.7969C104.997 17.1354 104.961 17.3763 104.961 17.5195C104.961 17.7279 105.016 17.8906 105.127 18.0078C105.238 18.125 105.41 18.1836 105.645 18.1836C105.957 18.1836 106.263 18.0729 106.562 17.8516C106.862 17.6302 107.145 17.3242 107.412 16.9336C107.66 16.5755 107.887 16.1589 108.096 15.6836C108.311 15.2083 108.493 14.7168 108.643 14.209C108.786 13.7142 108.896 13.2324 108.975 12.7637C109.059 12.2884 109.102 11.8685 109.102 11.5039C109.076 11.5625 108.981 11.6113 108.818 11.6504C108.714 11.6829 108.597 11.6992 108.467 11.6992C108.239 11.6992 108.06 11.5885 107.93 11.3672C107.806 11.1784 107.744 10.9505 107.744 10.6836C107.744 10.3581 107.848 10.0977 108.057 9.90234C108.265 9.70052 108.574 9.59961 108.984 9.59961C109.427 9.59961 109.756 9.77865 109.971 10.1367C110.153 10.4362 110.244 10.8366 110.244 11.3379C110.244 11.8913 110.195 12.4902 110.098 13.1348C110.007 13.7793 109.867 14.4141 109.678 15.0391C109.222 16.5234 108.607 17.6921 107.832 18.5449C106.895 19.5931 105.798 20.1172 104.541 20.1172C103.883 20.1172 103.35 19.9772 102.939 19.6973C102.529 19.4173 102.266 18.9974 102.148 18.4375C101.725 19.082 101.23 19.541 100.664 19.8145C100.26 20.0163 99.8079 20.1172 99.3066 20.1172Z" fill="#7165FF"/>
<path d="M54.9902 6.29883C54.0723 6.62435 53.3789 7.12891 52.9102 7.8125C52.4479 8.48958 52.2168 9.31966 52.2168 10.3027C52.2168 10.7324 52.2624 11.1263 52.3535 11.4844C52.4512 11.8359 52.5846 12.1224 52.7539 12.3438C51.8945 12.3438 51.263 12.1712 50.8594 11.8262C50.4557 11.4746 50.2539 10.9245 50.2539 10.1758C50.2539 9.2513 50.5339 8.37565 51.0938 7.54883C51.6276 6.76107 52.3535 6.1263 53.2715 5.64453C54.2155 5.16276 55.2344 4.92188 56.3281 4.92188C56.6341 4.92188 56.901 4.94466 57.1289 4.99023C57.3633 5.0293 57.6237 5.09766 57.9102 5.19531L60.3223 15.8984L62.5586 5.03906H64.502L61.2402 20H58.4766L56.1621 10.0781L53.877 20H51.9824L54.9902 6.29883Z" fill="#7165FF"/>
<path d="M64.2383 13.9844H68.2324L67.9004 15.5566H63.877L64.2383 13.9844Z" fill="black"/>
<path d="M77.041 20.3418C76.4876 20.3418 76.0514 20.2474 75.7324 20.0586C75.2832 19.7982 75.0586 19.3978 75.0586 18.8574C75.0586 18.4993 75.1432 18.112 75.3125 17.6953C75.5599 17.9622 75.7878 18.151 75.9961 18.2617C76.2044 18.3659 76.4258 18.418 76.6602 18.418C77.3242 18.418 77.8353 18.0078 78.1934 17.1875C78.3431 16.8555 78.4538 16.4811 78.5254 16.0645C78.597 15.6413 78.6328 15.2279 78.6328 14.8242C78.6328 14.056 78.4993 13.457 78.2324 13.0273C77.9134 12.526 77.4154 12.2754 76.7383 12.2754C76.3802 12.2754 76.0742 12.2982 75.8203 12.3438L74.1797 20H71.2988L74.0137 7.27539L76.9727 6.88477L76.0352 11.3184H76.1523C76.5365 11.3184 76.9043 11.224 77.2559 11.0352C77.6074 10.8464 77.9167 10.5892 78.1836 10.2637C78.444 9.94466 78.6491 9.5931 78.7988 9.20898C78.9551 8.82487 79.0332 8.44727 79.0332 8.07617C79.0332 7.78971 78.9811 7.51953 78.877 7.26562C78.7793 7.00521 78.6296 6.77734 78.4277 6.58203C77.9655 6.13932 77.2884 5.91797 76.3965 5.91797C75.5762 5.91797 74.7982 6.09375 74.0625 6.44531C73.2422 6.84245 72.6139 7.37956 72.1777 8.05664C71.6569 8.8444 71.3965 9.7526 71.3965 10.7812C71.3965 11.2109 71.4453 11.543 71.543 11.7773C71.569 11.862 71.6016 11.9368 71.6406 12.002C71.6667 12.0475 71.6797 12.0931 71.6797 12.1387C70.9701 12.1387 70.4362 11.9987 70.0781 11.7188C69.7201 11.4323 69.541 10.9603 69.541 10.3027C69.541 9.39128 69.8893 8.52214 70.5859 7.69531C70.9115 7.30469 71.2988 6.94661 71.748 6.62109C72.2038 6.28906 72.7018 6.0026 73.2422 5.76172C74.3815 5.25391 75.5664 5 76.7969 5C78.1706 5 79.248 5.32552 80.0293 5.97656C80.3678 6.26302 80.6217 6.59831 80.791 6.98242C80.9668 7.36003 81.0547 7.76042 81.0547 8.18359C81.0547 8.8151 80.8854 9.40104 80.5469 9.94141C80.1693 10.5404 79.6712 11.0124 79.0527 11.3574C79.8535 11.5007 80.4622 11.888 80.8789 12.5195C81.237 13.0729 81.416 13.7598 81.416 14.5801C81.416 14.9186 81.3835 15.293 81.3184 15.7031C81.2533 16.1133 81.1556 16.5202 81.0254 16.9238C80.7064 17.9264 80.2539 18.7109 79.668 19.2773C78.9388 19.987 78.0632 20.3418 77.041 20.3418Z" fill="black"/>
<path d="M83.4863 10H86.3672L86.1133 11.2402C86.569 10.8366 86.9401 10.5501 87.2266 10.3809C87.6693 10.127 88.1022 10 88.5254 10C88.9551 10 89.3001 10.153 89.5605 10.459C89.6777 10.5957 89.7656 10.7552 89.8242 10.9375C89.8828 11.1133 89.9121 11.3021 89.9121 11.5039C89.9121 11.6862 89.8828 11.862 89.8242 12.0312C89.7656 12.2005 89.6777 12.3535 89.5605 12.4902C89.4303 12.6335 89.2708 12.7474 89.082 12.832C88.8997 12.9167 88.6947 12.959 88.4668 12.959C88.291 12.959 88.151 12.9297 88.0469 12.8711C87.9427 12.8125 87.8613 12.7279 87.8027 12.6172C87.7507 12.5065 87.7148 12.3991 87.6953 12.2949C87.6367 12.015 87.5781 11.8294 87.5195 11.7383C87.474 11.6732 87.4023 11.6406 87.3047 11.6406C87.0247 11.6406 86.7871 11.6992 86.5918 11.8164C86.3965 11.9336 86.1491 12.1289 85.8496 12.4023L84.248 20H81.3672L83.4863 10Z" fill="black"/>
<path d="M92.5098 20.1172C91.5267 20.1172 90.7682 19.8698 90.2344 19.375C89.668 18.8477 89.3848 18.0371 89.3848 16.9434C89.3848 16.5332 89.4271 16.0775 89.5117 15.5762C89.5898 15.0749 89.7103 14.5736 89.873 14.0723C90.0553 13.5124 90.2865 12.9818 90.5664 12.4805C90.8529 11.9792 91.1849 11.5365 91.5625 11.1523C92.4349 10.2669 93.5091 9.82422 94.7852 9.82422C95.599 9.82422 96.1914 10.0195 96.5625 10.4102C96.849 10.7161 96.9922 11.1589 96.9922 11.7383C96.9922 12.3047 96.8685 12.8385 96.6211 13.3398C96.3737 13.8346 96.0319 14.2741 95.5957 14.6582C95.1595 15.0358 94.6647 15.3385 94.1113 15.5664C93.5579 15.7878 92.985 15.918 92.3926 15.957C92.36 16.2956 92.3438 16.5625 92.3438 16.7578C92.3438 17.4089 92.4674 17.8581 92.7148 18.1055C92.9297 18.3268 93.2878 18.4375 93.7891 18.4375C94.5117 18.4375 95.1725 18.2422 95.7715 17.8516C96.0254 17.6888 96.2695 17.4967 96.5039 17.2754C96.7383 17.0475 97.0117 16.7611 97.3242 16.416H98.0078C97.3763 17.4837 96.6504 18.3333 95.8301 18.9648C94.821 19.7331 93.7142 20.1172 92.5098 20.1172ZM92.5488 15C92.9199 14.974 93.2812 14.8665 93.6328 14.6777C93.9844 14.4889 94.2969 14.2415 94.5703 13.9355C94.8438 13.623 95.0586 13.2747 95.2148 12.8906C95.3711 12.5 95.4492 12.1029 95.4492 11.6992C95.4492 11.4323 95.4102 11.2305 95.332 11.0938C95.2604 10.9505 95.1335 10.8789 94.9512 10.8789C94.7103 10.8789 94.4661 10.9961 94.2188 11.2305C93.9779 11.4648 93.7435 11.7871 93.5156 12.1973C93.3073 12.5814 93.1185 13.0176 92.9492 13.5059C92.7799 13.9941 92.6465 14.4922 92.5488 15Z" fill="black"/>
<path d="M99.3066 20.1172C98.6686 20.1172 98.1641 19.9284 97.793 19.5508C97.3763 19.1341 97.168 18.5254 97.168 17.7246C97.168 17.347 97.2201 16.9108 97.3242 16.416L98.6816 10H101.562L100.127 16.7969C100.088 16.9596 100.068 17.1289 100.068 17.3047C100.068 17.5586 100.111 17.7604 100.195 17.9102C100.293 18.0924 100.449 18.1836 100.664 18.1836C101.029 18.1836 101.357 18.0176 101.65 17.6855C101.885 17.4056 102.09 16.9824 102.266 16.416L103.623 10H106.504L105.068 16.7969C104.997 17.1354 104.961 17.3763 104.961 17.5195C104.961 17.7279 105.016 17.8906 105.127 18.0078C105.238 18.125 105.41 18.1836 105.645 18.1836C105.957 18.1836 106.263 18.0729 106.562 17.8516C106.862 17.6302 107.145 17.3242 107.412 16.9336C107.66 16.5755 107.887 16.1589 108.096 15.6836C108.311 15.2083 108.493 14.7168 108.643 14.209C108.786 13.7142 108.896 13.2324 108.975 12.7637C109.059 12.2884 109.102 11.8685 109.102 11.5039C109.076 11.5625 108.981 11.6113 108.818 11.6504C108.714 11.6829 108.597 11.6992 108.467 11.6992C108.239 11.6992 108.06 11.5885 107.93 11.3672C107.806 11.1784 107.744 10.9505 107.744 10.6836C107.744 10.3581 107.848 10.0977 108.057 9.90234C108.265 9.70052 108.574 9.59961 108.984 9.59961C109.427 9.59961 109.756 9.77865 109.971 10.1367C110.153 10.4362 110.244 10.8366 110.244 11.3379C110.244 11.8913 110.195 12.4902 110.098 13.1348C110.007 13.7793 109.867 14.4141 109.678 15.0391C109.222 16.5234 108.607 17.6921 107.832 18.5449C106.895 19.5931 105.798 20.1172 104.541 20.1172C103.883 20.1172 103.35 19.9772 102.939 19.6973C102.529 19.4173 102.266 18.9974 102.148 18.4375C101.725 19.082 101.23 19.541 100.664 19.8145C100.26 20.0163 99.8079 20.1172 99.3066 20.1172Z" fill="black"/>
<path d="M8.7207 20.3418C8.14128 20.3418 7.72135 20.1953 7.46094 19.9023C7.25911 19.681 7.1582 19.3815 7.1582 19.0039C7.1582 18.7044 7.20378 18.3594 7.29492 17.9688C7.38607 17.5716 7.51953 17.0605 7.69531 16.4355C7.87109 15.804 8.0013 15.2832 8.08594 14.873C8.17708 14.4629 8.22266 14.0853 8.22266 13.7402C8.22266 13.3171 8.13477 12.9883 7.95898 12.7539C7.76367 12.5065 7.45117 12.3828 7.02148 12.3828C6.7806 12.3828 6.55924 12.4089 6.35742 12.4609L4.75586 20H1.88477L4.59961 7.27539L7.55859 6.88477L6.58203 11.5039H6.73828C7.13542 11.5039 7.50977 11.3997 7.86133 11.1914C8.21289 10.9766 8.52214 10.6901 8.78906 10.332C9.03646 9.99349 9.22852 9.61914 9.36523 9.20898C9.50846 8.79883 9.58008 8.40169 9.58008 8.01758C9.58008 7.73112 9.5345 7.46094 9.44336 7.20703C9.35872 6.95312 9.23177 6.73177 9.0625 6.54297C8.67839 6.1263 8.11849 5.91797 7.38281 5.91797C6.56901 5.91797 5.83008 6.02865 5.16602 6.25C4.50846 6.46484 3.94206 6.78385 3.4668 7.20703C2.98503 7.63021 2.61719 8.14453 2.36328 8.75C2.10938 9.35547 1.98242 10.0326 1.98242 10.7812C1.98242 11.1979 2.02799 11.5299 2.11914 11.7773C2.14518 11.862 2.17773 11.9368 2.2168 12.002C2.24284 12.0475 2.25586 12.0931 2.25586 12.1387C1.5332 12.1387 1.00586 11.9954 0.673828 11.709C0.302734 11.3965 0.117188 10.8919 0.117188 10.1953C0.117188 9.75911 0.211589 9.32943 0.400391 8.90625C0.589193 8.47656 0.85612 8.06315 1.20117 7.66602C1.52669 7.28841 1.91406 6.93685 2.36328 6.61133C2.81901 6.2793 3.31055 5.99284 3.83789 5.75195C4.94466 5.25065 6.04492 5 7.13867 5C7.89388 5 8.55794 5.08789 9.13086 5.26367C9.71029 5.43294 10.1953 5.67383 10.5859 5.98633C10.9505 6.2793 11.224 6.61784 11.4062 7.00195C11.5885 7.37956 11.6797 7.77995 11.6797 8.20312C11.6797 8.84115 11.4941 9.45964 11.123 10.0586C10.7064 10.7227 10.1725 11.2435 9.52148 11.6211C10.0358 11.7773 10.3971 12.028 10.6055 12.373C10.8008 12.7051 10.8984 13.1217 10.8984 13.623C10.8984 13.9941 10.8561 14.3913 10.7715 14.8145C10.6868 15.2311 10.5664 15.7259 10.4102 16.2988C10.2344 16.9368 10.1074 17.4251 10.0293 17.7637C9.95768 18.0957 9.92188 18.4017 9.92188 18.6816C9.92188 18.9941 9.99023 19.2708 10.127 19.5117C10.2702 19.7461 10.4622 19.9089 10.7031 20C9.90234 20.2279 9.24154 20.3418 8.7207 20.3418Z" fill="black"/>
<path d="M14.9512 20.0781C13.9616 20.0781 13.1966 19.8372 12.6562 19.3555C12.0508 18.8216 11.748 18.0111 11.748 16.9238C11.748 16.5137 11.7904 16.0612 11.875 15.5664C11.9596 15.0651 12.0898 14.5605 12.2656 14.0527C12.6693 12.8418 13.2454 11.875 13.9941 11.1523C14.8991 10.2669 15.9766 9.82422 17.2266 9.82422C18.9388 9.82422 19.7949 10.8887 19.7949 13.0176V13.0371C19.834 13.0501 19.8665 13.0566 19.8926 13.0566H20.0098C20.4525 13.0566 20.9766 12.9329 21.582 12.6855C22.1159 12.4642 22.6204 12.1875 23.0957 11.8555L23.2715 12.4023C22.8809 12.8125 22.3763 13.1608 21.7578 13.4473C21.1458 13.7337 20.4688 13.9388 19.7266 14.0625C19.6484 14.9674 19.4727 15.7943 19.1992 16.543C18.9258 17.2852 18.5742 17.9232 18.1445 18.457C17.7214 18.9779 17.2363 19.3783 16.6895 19.6582C16.1426 19.9382 15.5632 20.0781 14.9512 20.0781ZM15.752 18.2812C15.9863 18.2812 16.224 18.1771 16.4648 17.9688C16.7122 17.7539 16.9434 17.4577 17.1582 17.0801C17.373 16.7025 17.5586 16.2598 17.7148 15.752C17.8711 15.2441 17.9883 14.7005 18.0664 14.1211C17.8711 14.069 17.7311 13.9714 17.6465 13.8281C17.5684 13.6849 17.5293 13.5026 17.5293 13.2812C17.5293 13.0078 17.5846 12.7799 17.6953 12.5977C17.806 12.4154 17.959 12.2819 18.1543 12.1973C18.1283 11.7741 18.0599 11.4714 17.9492 11.2891C17.8906 11.1979 17.8158 11.1328 17.7246 11.0938C17.64 11.0547 17.5293 11.0352 17.3926 11.0352C16.9434 11.0352 16.5039 11.3737 16.0742 12.0508C15.6771 12.6628 15.3516 13.418 15.0977 14.3164C14.8503 15.1953 14.7266 15.9766 14.7266 16.6602C14.7266 16.9922 14.7428 17.2624 14.7754 17.4707C14.8145 17.679 14.8763 17.8418 14.9609 17.959C15.0391 18.0762 15.14 18.1608 15.2637 18.2129C15.3874 18.2585 15.5501 18.2812 15.752 18.2812Z" fill="black"/>
<path d="M23.2227 20.1172C22.4609 20.1172 21.8457 19.8796 21.377 19.4043C20.8301 18.8444 20.5566 18.0111 20.5566 16.9043C20.5566 16.4355 20.6055 15.9408 20.7031 15.4199C20.7943 14.8991 20.931 14.3848 21.1133 13.877C21.5299 12.7311 22.0996 11.8066 22.8223 11.1035C23.6556 10.3027 24.6159 9.90234 25.7031 9.90234C26.2435 9.90234 26.6471 9.99674 26.9141 10.1855C27.1875 10.3678 27.3242 10.612 27.3242 10.918V11.0645L27.5391 10H30.4199L28.9844 16.7969C28.9258 16.9922 28.8965 17.207 28.8965 17.4414C28.8965 18.0143 29.1699 18.3008 29.7168 18.3008C30.0814 18.3008 30.4134 18.1152 30.7129 17.7441C30.9668 17.4316 31.1751 16.9889 31.3379 16.416H32.1777C31.8197 17.4316 31.3867 18.2357 30.8789 18.8281C30.4492 19.3164 29.9642 19.668 29.4238 19.8828C29.0267 20.0391 28.6068 20.1172 28.1641 20.1172C27.5977 20.1172 27.1452 19.9642 26.8066 19.6582C26.4746 19.3457 26.2728 18.8867 26.2012 18.2812C25.8236 18.8151 25.4264 19.2318 25.0098 19.5312C24.4759 19.9219 23.8802 20.1172 23.2227 20.1172ZM24.5215 18.1836C24.6712 18.1836 24.8275 18.1445 24.9902 18.0664C25.1595 17.9883 25.3223 17.8776 25.4785 17.7344C25.8301 17.3958 26.0645 16.9564 26.1816 16.416L27.1387 11.9043C27.1387 11.8392 27.1224 11.7643 27.0898 11.6797C27.0638 11.5885 27.0247 11.5039 26.9727 11.4258C26.8164 11.237 26.5983 11.1426 26.3184 11.1426C26.0514 11.1426 25.791 11.2305 25.5371 11.4062C25.2897 11.582 25.0553 11.8262 24.834 12.1387C24.4434 12.7051 24.1211 13.444 23.8672 14.3555C23.75 14.7591 23.6621 15.1595 23.6035 15.5566C23.5449 15.9473 23.5156 16.3021 23.5156 16.6211C23.5156 17.2852 23.6393 17.7344 23.8867 17.9688C23.9714 18.0599 24.0658 18.1185 24.1699 18.1445C24.2741 18.1706 24.3913 18.1836 24.5215 18.1836Z" fill="black"/>
<path d="M33.623 20.1172C33.1413 20.1172 32.7148 20.0456 32.3438 19.9023C31.9727 19.7526 31.6602 19.5475 31.4062 19.2871C31.1719 19.0462 30.9961 18.7793 30.8789 18.4863C30.7617 18.1868 30.7031 17.8776 30.7031 17.5586C30.7031 17.1224 30.8138 16.7285 31.0352 16.377C31.2305 16.0645 31.4746 15.8398 31.7676 15.7031C32.2884 14.7786 32.7409 13.8411 33.125 12.8906C33.5091 11.9401 33.877 10.9017 34.2285 9.77539L37.1875 9.38477C37.2656 11.0775 37.3372 12.3763 37.4023 13.2812C37.4674 14.2122 37.5228 14.8958 37.5684 15.332C37.6074 15.8398 37.627 16.2826 37.627 16.6602C37.627 16.9987 37.6009 17.2526 37.5488 17.4219C38.1478 17.0703 38.6263 16.735 38.9844 16.416H39.8242C39.349 16.9694 38.8574 17.4447 38.3496 17.8418C37.8483 18.2389 37.321 18.597 36.7676 18.916C36.3704 19.3327 35.8724 19.6419 35.2734 19.8438C34.7526 20.026 34.2025 20.1172 33.623 20.1172ZM32.9883 18.5352C33.4896 18.5352 33.89 18.3984 34.1895 18.125C34.5475 17.7995 34.7266 17.3177 34.7266 16.6797C34.7266 16.4128 34.7103 16.0775 34.6777 15.6738L34.6289 15.0781C34.5703 14.5638 34.5117 13.9681 34.4531 13.291L34.3457 11.9434C34.1569 12.5488 33.9323 13.151 33.6719 13.75C33.4115 14.3424 33.0957 15 32.7246 15.7227C33.0306 15.8919 33.1836 16.123 33.1836 16.416C33.1836 16.6764 33.1055 16.901 32.9492 17.0898C32.7799 17.2982 32.5651 17.4023 32.3047 17.4023C32.1745 17.4023 32.0638 17.3861 31.9727 17.3535C31.888 17.3145 31.8197 17.2428 31.7676 17.1387C31.7676 17.6204 31.862 17.9753 32.0508 18.2031C32.2396 18.4245 32.5521 18.5352 32.9883 18.5352Z" fill="black"/>
<path d="M40.9668 20.1172C40.3288 20.1172 39.8242 19.9284 39.4531 19.5508C39.0365 19.1341 38.8281 18.5254 38.8281 17.7246C38.8281 17.347 38.8802 16.9108 38.9844 16.416L40.1855 10.8008H39.5215L39.6875 10H40.3418L40.9473 7.23633L43.9062 6.83594L43.2227 10H44.4238L44.2676 10.8008H43.0664L41.7871 16.7969C41.735 16.9661 41.709 17.181 41.709 17.4414C41.709 17.7148 41.7708 17.9069 41.8945 18.0176C42.0247 18.1283 42.2331 18.1836 42.5195 18.1836C42.7148 18.1836 42.9036 18.1413 43.0859 18.0566C43.2747 17.9655 43.4473 17.8418 43.6035 17.6855C43.9225 17.3665 44.1634 16.9434 44.3262 16.416H45.166C44.8079 17.4251 44.3587 18.2292 43.8184 18.8281C43.3626 19.3164 42.8483 19.668 42.2754 19.8828C41.8587 20.0391 41.4225 20.1172 40.9668 20.1172Z" fill="black"/>
<path d="M45.0781 13.9844H49.0723L48.7402 15.5566H44.7168L45.0781 13.9844Z" fill="black"/>
</svg>
