<svg width="24" height="24" viewBox="0 0 24 24" fill="none" xmlns="http://www.w3.org/2000/svg">
<path d="M22.6011 2.062C22.556 1.89072 22.4662 1.73448 22.341 1.60924C22.2157 1.484 22.0595 1.39423 21.8882 1.34911C19.8368 0.816298 17.6767 0.873685 15.6565 1.51466C13.6363 2.15564 11.8382 3.35414 10.4692 4.97217L9.35432 6.296L6.74952 5.66752C6.11626 5.44675 5.4245 5.46257 4.802 5.71207C4.1795 5.96157 3.66829 6.42788 3.3628 7.0249L1.16261 10.9248C1.08552 11.0614 1.04164 11.2142 1.03454 11.3709C1.02743 11.5276 1.05728 11.6838 1.12169 11.8268C1.1861 11.9698 1.28325 12.0957 1.40529 12.1942C1.52733 12.2927 1.67085 12.3612 1.82423 12.394L4.89698 13.0527C4.63669 13.845 4.45083 14.6599 4.34181 15.4868C4.32205 15.6387 4.33743 15.7931 4.38679 15.9381C4.43614 16.0831 4.51814 16.2149 4.62647 16.3232L7.72657 19.4233C7.81939 19.5162 7.9296 19.5899 8.05091 19.6402C8.17222 19.6904 8.30225 19.7163 8.43357 19.7163C8.46238 19.7163 8.49119 19.7148 8.52049 19.7124C9.36583 19.6364 10.2009 19.4722 11.0121 19.2224L11.6557 22.2256C11.6886 22.3789 11.7571 22.5224 11.8557 22.6444C11.9542 22.7664 12.0801 22.8635 12.2231 22.9279C12.3661 22.9923 12.5222 23.0221 12.6789 23.0151C12.8355 23.008 12.9884 22.9642 13.125 22.8872L17.0302 20.6845C17.5799 20.3506 18.0093 19.8506 18.2564 19.2569C18.5035 18.6631 18.5556 18.0062 18.4052 17.3808L17.7365 14.6218L18.9736 13.4843C20.5977 12.1192 21.8008 10.321 22.443 8.29895C23.0851 6.27687 23.14 4.11402 22.6011 2.062ZM3.57228 10.7231L5.12843 7.96338C5.22508 7.77602 5.38976 7.63274 5.58868 7.56292C5.7876 7.49311 6.0057 7.50204 6.19825 7.58789L7.91566 8.00409L7.26566 8.77588C6.64942 9.51446 6.11643 10.3187 5.67634 11.174L3.57228 10.7231ZM16.0425 18.9453L13.3267 20.477L12.8972 18.4724C13.7678 18.0382 14.5789 17.4937 15.3106 16.8525L16.0541 16.1688L16.4575 17.8334C16.5099 18.039 16.4981 18.2556 16.424 18.4543C16.3498 18.653 16.2167 18.8243 16.0425 18.9453ZM17.6567 11.98L13.9722 15.3662C12.5137 16.6275 10.7148 17.4292 8.80177 17.6704L6.39747 15.2661C6.72039 13.3481 7.54918 11.551 8.79835 10.0601L10.4767 8.06745C10.5047 8.0382 10.5308 8.00721 10.5548 7.97468L11.9898 6.271C13.0507 5.0179 14.4253 4.06881 15.973 3.52064C17.5207 2.97248 19.1862 2.84488 20.7993 3.15088C21.1127 4.7691 20.9865 6.44175 20.4338 7.9946C19.8811 9.54746 18.9221 10.9237 17.6567 11.98ZM16.7337 5.81624C16.4371 5.81624 16.1471 5.90421 15.9004 6.06904C15.6537 6.23386 15.4615 6.46812 15.3479 6.74221C15.2344 7.0163 15.2047 7.3179 15.2626 7.60887C15.3204 7.89985 15.4633 8.16712 15.6731 8.3769C15.8829 8.58668 16.1501 8.72954 16.4411 8.78742C16.7321 8.8453 17.0337 8.81559 17.3078 8.70206C17.5819 8.58853 17.8161 8.39627 17.981 8.14959C18.1458 7.90292 18.2337 7.61291 18.2337 7.31624C18.2338 7.11925 18.195 6.92418 18.1196 6.74219C18.0442 6.56019 17.9337 6.39482 17.7944 6.25553C17.6551 6.11624 17.4898 6.00575 17.3078 5.93037C17.1258 5.85499 16.9307 5.8162 16.7337 5.81622L16.7337 5.81624Z" fill="black"/>
</svg>
