<svg width="24" height="24" viewBox="0 0 24 24" fill="none" xmlns="http://www.w3.org/2000/svg">
<path opacity="0.1" fill-rule="evenodd" clip-rule="evenodd" d="M12 24C18.6274 24 24 18.6274 24 12C24 5.37258 18.6274 0 12 0C5.37258 0 0 5.37258 0 12C0 18.6274 5.37258 24 12 24Z" fill="url(#paint0_linear)"/>
<path d="M11.4442 11.4439L10.0284 13.972L12.5564 12.5561L13.9723 10.0281L11.4442 11.4439Z" fill="url(#paint1_linear)"/>
<path fill-rule="evenodd" clip-rule="evenodd" d="M17.3337 12C17.3337 14.9455 14.9458 17.3334 12.0003 17.3334C9.05481 17.3334 6.66699 14.9455 6.66699 12C6.66699 9.0545 9.05481 6.66669 12.0003 6.66669C14.9458 6.66669 17.3337 9.0545 17.3337 12ZM11.7283 8.26669C11.7283 8.11941 11.8477 8.00002 11.995 8.00002H12.0057C12.1529 8.00002 12.2723 8.11941 12.2723 8.26669C12.2723 8.41396 12.1529 8.53335 12.0057 8.53335H11.995C11.8477 8.53335 11.7283 8.41396 11.7283 8.26669ZM14.8556 9.14479C14.94 9.22922 14.958 9.35948 14.8997 9.46366L12.985 12.8823C12.961 12.9252 12.9255 12.9607 12.8826 12.9847L9.46396 14.8994C9.35979 14.9577 9.22953 14.9397 9.1451 14.8553C9.06067 14.7708 9.04265 14.6406 9.101 14.5364L11.0157 11.1177C11.0397 11.0748 11.0751 11.0394 11.118 11.0154L14.5367 9.10069C14.6409 9.04235 14.7711 9.06036 14.8556 9.14479ZM11.995 15.4667C11.8477 15.4667 11.7283 15.5861 11.7283 15.7334C11.7283 15.8806 11.8477 16 11.995 16H12.0057C12.1529 16 12.2723 15.8806 12.2723 15.7334C12.2723 15.5861 12.1529 15.4667 12.0057 15.4667H11.995ZM15.7337 11.728C15.8809 11.728 16.0003 11.8474 16.0003 11.9947V12.0054C16.0003 12.1526 15.8809 12.272 15.7337 12.272C15.5864 12.272 15.467 12.1526 15.467 12.0054V11.9947C15.467 11.8474 15.5864 11.728 15.7337 11.728ZM8.53366 11.9947C8.53366 11.8474 8.41427 11.728 8.26699 11.728C8.11972 11.728 8.00033 11.8474 8.00033 11.9947V12.0054C8.00033 12.1526 8.11972 12.272 8.26699 12.272C8.41427 12.272 8.53366 12.1526 8.53366 12.0054V11.9947Z" fill="url(#paint2_linear)"/>
<defs>
<linearGradient id="paint0_linear" x1="24" y1="3.62098e-06" x2="-3.66143" y2="5.46399" gradientUnits="userSpaceOnUse">
<stop stop-color="#FBC167"/>
<stop offset="1" stop-color="#FBBF57"/>
</linearGradient>
<linearGradient id="paint1_linear" x1="17.3337" y1="6.66669" x2="5.03969" y2="9.09513" gradientUnits="userSpaceOnUse">
<stop stop-color="#FBC167"/>
<stop offset="1" stop-color="#FBBF57"/>
</linearGradient>
<linearGradient id="paint2_linear" x1="17.3337" y1="6.66669" x2="5.03969" y2="9.09513" gradientUnits="userSpaceOnUse">
<stop stop-color="#FBC167"/>
<stop offset="1" stop-color="#FBBF57"/>
</linearGradient>
</defs>
</svg>
