<svg width="80" height="80" viewBox="0 0 80 80" fill="none" xmlns="http://www.w3.org/2000/svg">
<circle cx="40" cy="40" r="40" fill="#7165FF"/>
<path d="M27.7262 21.9936H50.8235L53.1333 28.9228H25.4165L27.7262 21.9936Z" fill="#F8F6F8"/>
<rect x="21.9512" y="28.9228" width="34.646" height="4.61946" rx="0.79397" fill="#E9E9E9"/>
<path d="M25.4165 33.5422H53.1333L49.6687 68.1882H28.8811L25.4165 33.5422Z" fill="#F8F6F8"/>
<path d="M53.4603 39.5429C53.5769 38.3579 53.6352 37.7655 53.2915 37.3862C52.9477 37.0069 52.3523 37.0069 51.1617 37.0069H27.3865C26.1958 37.0069 25.6005 37.0069 25.2567 37.3862C24.9129 37.7655 24.9712 38.3579 25.0879 39.5429L26.6792 55.711C26.7767 56.7011 26.8254 57.1961 27.1555 57.4953C27.4856 57.7945 27.983 57.7945 28.9778 57.7945H49.5703C50.5652 57.7945 51.0626 57.7945 51.3927 57.4953C51.7228 57.1961 51.7715 56.7011 51.869 55.711L53.4603 39.5429Z" fill="#D2CEFF"/>
<path d="M29.4575 42.7812C29.4575 42.4623 29.716 42.2037 30.035 42.2037C30.3539 42.2037 30.6124 42.4623 30.6124 42.7812V52.0201C30.6124 52.339 30.3539 52.5975 30.035 52.5975C29.716 52.5975 29.4575 52.339 29.4575 52.0201V42.7812Z" fill="#7165FF" style="mix-blend-mode:darken"/>
<path d="M31.7681 42.7812C31.7681 42.4623 32.0266 42.2037 32.3456 42.2037C32.6645 42.2037 32.923 42.4623 32.923 42.7812V52.0201C32.923 52.339 32.6645 52.5975 32.3456 52.5975C32.0266 52.5975 31.7681 52.339 31.7681 52.0201V42.7812Z" fill="#7165FF" style="mix-blend-mode:darken"/>
<path d="M34.6553 42.2037C34.3364 42.2037 34.0779 42.4623 34.0779 42.7812V52.0201C34.0779 52.339 34.3364 52.5975 34.6553 52.5975C34.9742 52.5975 35.2327 52.339 35.2327 52.0201V42.7812C35.2327 42.4623 34.9742 42.2037 34.6553 42.2037Z" fill="#7165FF" style="mix-blend-mode:darken"/>
<path d="M36.3876 42.7812C36.3876 42.4623 36.6461 42.2037 36.965 42.2037C37.2839 42.2037 37.5425 42.4623 37.5425 42.7812V52.0201C37.5425 52.339 37.2839 52.5975 36.965 52.5975C36.6461 52.5975 36.3876 52.339 36.3876 52.0201V42.7812Z" fill="#7165FF" style="mix-blend-mode:darken"/>
<path d="M39.2747 42.2037C38.9558 42.2037 38.6973 42.4623 38.6973 42.7812V52.0201C38.6973 52.339 38.9558 52.5975 39.2747 52.5975C39.5937 52.5975 39.8522 52.339 39.8522 52.0201V42.7812C39.8522 42.4623 39.5937 42.2037 39.2747 42.2037Z" fill="#7165FF" style="mix-blend-mode:darken"/>
<path d="M41.007 42.7812C41.007 42.4623 41.2656 42.2037 41.5845 42.2037C41.9034 42.2037 42.1619 42.4623 42.1619 42.7812V52.0201C42.1619 52.339 41.9034 52.5975 41.5845 52.5975C41.2656 52.5975 41.007 52.339 41.007 52.0201V42.7812Z" fill="#7165FF" style="mix-blend-mode:darken"/>
<path d="M43.8942 42.2037C43.5753 42.2037 43.3168 42.4623 43.3168 42.7812V52.0201C43.3168 52.339 43.5753 52.5975 43.8942 52.5975C44.2131 52.5975 44.4716 52.339 44.4716 52.0201V42.7812C44.4716 42.4623 44.2131 42.2037 43.8942 42.2037Z" fill="#7165FF" style="mix-blend-mode:darken"/>
<path d="M45.6265 42.7812C45.6265 42.4623 45.885 42.2037 46.2039 42.2037C46.5228 42.2037 46.7814 42.4623 46.7814 42.7812V52.0201C46.7814 52.339 46.5228 52.5975 46.2039 52.5975C45.885 52.5975 45.6265 52.339 45.6265 52.0201V42.7812Z" fill="#7165FF" style="mix-blend-mode:darken"/>
<path d="M48.5137 42.2037C48.1948 42.2037 47.9362 42.4623 47.9362 42.7812V52.0201C47.9362 52.339 48.1948 52.5975 48.5137 52.5975C48.8326 52.5975 49.0911 52.339 49.0911 52.0201V42.7812C49.0911 42.4623 48.8326 42.2037 48.5137 42.2037Z" fill="#7165FF" style="mix-blend-mode:darken"/>
<g opacity="0.4">
<path d="M40.9297 11.5188C40.7476 11.7428 40.5461 11.9506 40.3275 12.1401C40.0966 12.3498 39.8457 12.5635 39.5828 12.7851C38.9891 13.2611 38.475 13.8259 38.0592 14.4591C37.6194 15.1765 37.4409 16.0203 37.5533 16.8512C37.6608 17.6141 37.968 18.3362 38.4446 18.9466C38.8806 19.5206 39.4391 19.9933 40.0806 20.3316C39.3258 19.1682 38.834 17.9098 38.9023 16.7859C38.9291 16.259 39.1135 15.7516 39.4322 15.3277C39.8124 14.8589 40.2439 14.4329 40.7189 14.0574C41.7066 13.2343 43.0957 11.9106 42.927 10.0606C42.8738 9.61041 42.6882 9.18539 42.3931 8.83781C42.125 8.53561 41.7971 8.29054 41.4295 8.11759C40.745 7.79508 40.1247 7.63876 39.5165 7.27272C39.8517 7.90588 40.4921 8.34117 40.9458 8.79428C41.3994 9.24738 41.6363 9.68861 41.5821 10.1358C41.5024 10.6486 41.2761 11.1283 40.9297 11.5188Z" fill="white"/>
<path d="M36.3292 19.3937C35.7649 18.6978 35.3916 17.8707 35.2452 16.9917C35.1933 16.5908 35.23 16.1837 35.3526 15.7981C35.4753 15.4126 35.681 15.0577 35.9558 14.7578C36.5259 14.1306 37.3048 13.5192 37.8528 12.6961C38.1649 12.2797 38.34 11.7791 38.3546 11.2616C38.3344 11.0122 38.2537 10.7713 38.1192 10.5592C37.9847 10.347 37.8003 10.1699 37.5818 10.0428C37.8568 10.4385 38.0214 10.8579 37.9351 11.2477C37.8261 11.6474 37.6145 12.0126 37.3208 12.3083C36.7327 12.9632 36.004 13.4836 35.3134 14.2117C34.9637 14.6071 34.7103 15.0761 34.5727 15.5829C34.4477 16.0892 34.4526 16.6182 34.5868 17.1222C34.853 18.0704 35.4762 18.8828 36.3292 19.3937Z" fill="white"/>
<path d="M41.7616 15.3633C41.4999 15.7501 41.3392 16.1946 41.2939 16.6573C41.2541 17.1071 41.3165 17.56 41.4766 17.983C41.7775 18.7822 42.3499 19.4541 43.0965 19.8845C42.6317 19.2622 42.2998 18.5534 42.1209 17.801C42.0427 17.4644 42.034 17.1158 42.0954 16.7758C42.1568 16.4359 42.287 16.1116 42.4783 15.8224C42.8617 15.2585 43.51 14.7598 44.0681 14.1366C44.3671 13.8228 44.6022 13.4554 44.7606 13.0543C44.9104 12.6485 44.9104 12.2037 44.7606 11.7979C44.7084 12.6388 44.2026 13.1948 43.6064 13.6756C43.0102 14.1564 42.2976 14.5936 41.7616 15.3633Z" fill="white"/>
</g>
</svg>
